<?xml version="1.0" standalone="no"?>
<!DOCTYPE svg PUBLIC "-//W3C//DTD SVG 20010904//EN"
 "http://www.w3.org/TR/2001/REC-SVG-20010904/DTD/svg10.dtd">
<svg version="1.0" xmlns="http://www.w3.org/2000/svg"
 width="8000.000000pt" height="8000.000000pt" viewBox="0 0 8000.000000 8000.000000"
 preserveAspectRatio="xMidYMid meet">

<g transform="translate(0.000000,8000.000000) scale(0.100000,-0.100000)"
fill="#000000" stroke="none">
<path d="M39205 69550 c-4006 -147 -7674 -1153 -11150 -3058 -1373 -752 -2708
-1666 -3975 -2721 -2157 -1796 -4051 -4026 -5502 -6481 -808 -1366 -1467
-2776 -2008 -4290 -340 -955 -611 -1894 -835 -2894 -37 -165 -73 -309 -80
-320 -8 -12 -25 -79 -40 -151 -14 -71 -48 -222 -75 -335 -70 -288 -66 -261
-36 -225 14 17 25 24 26 18 0 -7 -20 -135 -45 -285 -437 -2634 -464 -5306 -79
-7878 319 -2135 884 -4126 1732 -6105 681 -1589 1477 -3024 2455 -4425 858
-1229 1786 -2333 2871 -3415 679 -677 1310 -1241 2041 -1824 l181 -143 -28
-56 c-45 -88 -35 -176 26 -232 23 -21 39 -25 99 -28 85 -4 125 15 154 73 l19
35 209 -156 c1632 -1216 3300 -2171 5180 -2966 1623 -686 3265 -1184 4975
-1507 3096 -585 6215 -587 9340 -5 2498 465 5022 1368 7280 2604 1692 926
3193 1987 4670 3300 674 599 1471 1400 2075 2085 1891 2144 3418 4630 4461
7262 736 1858 1223 3693 1503 5668 129 903 200 1695 232 2570 13 369 7 1724
-10 2065 -66 1316 -202 2457 -441 3700 -408 2118 -1099 4181 -2063 6162 -586
1204 -1377 2519 -2203 3660 -106 146 -146 211 -158 251 -16 56 -77 130 -117
142 -10 3 -62 63 -116 133 -703 920 -1378 1689 -2212 2522 -608 608 -1086
1042 -1726 1570 -2781 2292 -5907 3905 -9395 4849 -1695 458 -3418 721 -5390
822 -267 13 -1549 20 -1845 9z m1590 -680 c2151 -70 4191 -401 6220 -1010 255
-76 1097 -353 1122 -368 8 -5 8 -21 -3 -62 -18 -72 -18 -222 2 -362 52 -373
310 -1092 491 -1368 27 -42 88 -123 135 -181 l85 -106 -386 -7 c-931 -16
-1656 -63 -2511 -162 -2166 -249 -4278 -785 -6285 -1592 -206 -83 -222 -88
-250 -76 -40 18 -78 17 -122 -1 -38 -16 -92 -70 -93 -92 0 -18 -11 -17 -192
21 -435 92 -897 202 -1090 260 -951 287 -1730 454 -2483 536 -421 45 -1544
129 -1995 150 -946 42 -1569 48 -1885 19 -119 -11 -155 -9 -420 15 -159 15
-459 40 -665 55 -300 24 -376 32 -385 45 -11 14 -21 91 -65 506 -41 378 -92
1059 -106 1416 l-7 170 179 81 c1191 539 2557 1017 3894 1362 972 251 2148
473 3110 586 736 86 1462 141 2190 164 357 12 1167 12 1515 1z m-11070 -2665
c27 -446 86 -1078 141 -1489 18 -136 18 -136 -2 -136 -29 0 -81 -40 -98 -74
-9 -19 -16 -52 -16 -74 0 -35 -5 -44 -37 -70 -21 -16 -66 -44 -101 -62 -111
-59 -495 -378 -791 -659 -349 -329 -825 -868 -1387 -1571 -500 -625 -901
-1139 -1239 -1590 -126 -168 -422 -559 -659 -870 -964 -1266 -1204 -1627
-1836 -2755 l-112 -200 5 -66 4 -65 -50 -27 c-28 -15 -51 -26 -52 -24 -13 24
-174 221 -186 228 -10 5 -38 9 -62 9 -54 0 -91 -26 -107 -75 -16 -48 -5 -77
70 -179 33 -46 60 -87 60 -90 0 -3 -41 -26 -91 -52 -81 -40 -94 -44 -122 -35
-67 24 -106 15 -237 -57 -69 -38 -233 -135 -365 -217 -1283 -795 -2508 -1714
-3630 -2724 -723 -652 -1495 -1435 -2038 -2068 -72 -84 -132 -151 -134 -149
-9 9 174 630 307 1046 214 666 554 1570 815 2165 745 1700 1628 3238 2708
4715 1000 1368 2254 2733 3577 3893 828 726 1677 1373 2615 1992 880 581 1605
999 2550 1471 l470 235 7 -58 c4 -32 14 -175 23 -318z m19759 -1112 l286 -6
103 -76 c174 -128 669 -455 870 -575 106 -62 311 -181 457 -263 541 -305 720
-419 1225 -773 154 -108 381 -265 505 -350 289 -197 543 -376 800 -564 218
-160 531 -383 930 -666 478 -338 783 -579 1137 -897 169 -152 686 -668 777
-776 l49 -57 77 -313 c520 -2085 758 -4115 737 -6257 -7 -654 -20 -990 -62
-1570 -28 -382 -97 -1081 -123 -1240 -7 -44 -9 -45 -62 -63 -106 -35 -218 -66
-430 -116 -240 -57 -454 -118 -764 -216 -203 -64 -625 -186 -896 -260 -698
-190 -1029 -298 -1826 -599 -1089 -411 -1327 -491 -2384 -802 -790 -233 -1321
-400 -2024 -638 l-488 -165 6 32 c3 17 8 62 12 99 6 57 4 71 -14 100 -12 19
-33 40 -47 46 -36 17 -110 15 -145 -3 -70 -36 -128 -251 -145 -536 l-7 -107
-161 182 c-511 573 -1079 1154 -1692 1727 -471 440 -1144 1007 -1765 1485
-1421 1096 -3001 2052 -4625 2798 -154 71 -281 130 -283 131 -1 1 4 20 12 42
33 95 41 220 41 713 0 472 -6 616 -41 1035 -29 345 -61 590 -140 1078 -64 396
-101 675 -110 836 -9 167 18 565 101 1501 61 682 106 1264 135 1735 6 94 17
224 25 290 19 160 40 384 65 700 41 520 45 552 126 884 40 168 94 383 119 476
57 215 57 253 4 306 -11 11 -17 24 -12 29 11 10 443 173 713 268 2347 831
4781 1294 7300 1391 265 10 1265 13 1634 4z m7721 -5678 c72 -81 131 -150 132
-154 2 -3 -42 -29 -97 -58 -85 -44 -100 -49 -104 -35 -11 37 -96 414 -96 425
0 7 8 2 18 -9 9 -12 76 -88 147 -169z m2380 -447 c1065 -1456 1953 -3001 2676
-4653 564 -1292 1066 -2809 1383 -4185 185 -803 344 -1702 431 -2425 195
-1636 230 -3185 110 -4805 -35 -465 -107 -1145 -161 -1513 -13 -93 -24 -170
-24 -172 0 -1 -25 -5 -56 -8 -48 -5 -61 -2 -86 16 l-29 21 -687 2 c-646 1
-1014 10 -1507 37 l-210 12 -37 160 c-21 88 -56 234 -77 325 -58 238 -93 415
-172 855 -88 494 -99 550 -149 774 -151 678 -346 1249 -755 2206 -339 793
-705 1550 -1013 2097 -60 106 -156 279 -212 383 -353 649 -664 1138 -1064
1670 l-120 159 -114 266 c-63 146 -125 295 -139 333 -15 41 -37 77 -54 92
l-29 24 29 238 c175 1407 226 2955 146 4398 -54 970 -166 1942 -331 2890 -36
207 -91 498 -100 527 -3 10 5 21 23 31 15 8 77 44 136 80 157 96 295 145 562
201 294 61 530 88 1110 126 171 11 319 22 330 24 11 2 27 4 35 4 9 1 74 -79
155 -190z m-36004 -3020 c73 -101 234 -325 358 -498 409 -573 468 -653 1077
-1455 273 -359 430 -576 799 -1100 649 -922 935 -1300 1360 -1795 761 -886
1032 -1161 1444 -1469 72 -55 141 -105 152 -113 20 -13 19 -19 -120 -433 -957
-2863 -1378 -5817 -1260 -8850 14 -359 38 -810 44 -826 6 -16 45 -459 45 -504
-1 -27 -15 -40 -140 -132 -76 -57 -150 -107 -165 -113 -77 -29 -458 -303 -867
-621 -266 -208 -493 -366 -838 -585 -404 -255 -653 -426 -1090 -748 -506 -372
-818 -580 -1190 -793 -146 -84 -797 -444 -963 -532 l-47 -26 -25 32 c-29 37
-84 58 -128 49 -22 -5 -84 -59 -236 -209 -188 -185 -215 -208 -305 -258 -72
-39 -102 -62 -111 -82 -6 -16 -25 -37 -40 -47 l-29 -19 -50 111 c-62 136 -88
160 -181 166 -43 3 -71 -1 -91 -11 l-29 -15 -87 84 c-48 46 -93 84 -101 84
-12 0 -311 310 -563 585 -1452 1584 -2745 3470 -3746 5465 -143 286 -196 382
-223 405 -26 23 -58 81 -138 255 -98 215 -105 226 -138 236 l-34 12 -12 118
c-34 333 -72 849 -94 1264 -17 328 -23 1538 -10 1920 56 1597 232 2975 573
4485 33 149 63 280 65 291 7 30 241 308 621 738 409 462 534 597 935 1013
1113 1157 2350 2201 3732 3150 192 132 620 413 629 413 3 0 2 -15 -1 -33 -6
-41 16 -67 55 -67 66 0 288 135 757 459 143 99 263 180 267 180 4 1 66 -81
139 -181z m15304 -2193 c2534 -1089 4888 -2610 6914 -4470 739 -678 1564
-1536 2169 -2256 l72 -86 0 -284 c-1 -424 -18 -1308 -30 -1524 -33 -587 -86
-974 -240 -1765 -248 -1270 -332 -1838 -450 -3050 -53 -539 -76 -753 -190
-1705 -113 -950 -165 -1437 -176 -1673 l-7 -142 -84 -60 c-78 -56 -87 -60
-141 -60 -65 0 -131 -26 -175 -68 -33 -31 -67 -92 -67 -120 0 -31 -665 -464
-1235 -804 -968 -577 -2066 -1126 -3111 -1553 -1926 -788 -3849 -1313 -5844
-1596 -285 -40 -296 -41 -325 -24 -16 9 -182 98 -368 197 -525 279 -864 476
-1402 815 -148 93 -405 252 -570 353 -861 525 -851 517 -1655 1123 -1153 869
-1569 1199 -2249 1781 -600 514 -751 655 -1413 1314 -547 546 -538 534 -502
603 23 45 15 139 -14 179 -19 25 -25 55 -37 182 -8 84 -19 239 -25 344 -5 105
-14 245 -20 310 -46 561 -65 1703 -40 2414 85 2393 481 4617 1225 6870 l116
350 73 -40 c63 -35 81 -40 135 -40 127 0 201 73 201 200 0 41 -6 74 -19 99
l-20 38 38 39 c20 21 184 136 364 254 180 118 673 445 1095 725 l768 510 209
95 c200 90 355 161 1125 517 439 203 578 265 855 380 614 254 879 373 1425
638 201 98 460 217 575 265 116 48 257 109 315 135 223 99 968 340 1455 469
341 91 937 224 1008 225 15 1 138 -46 272 -104z m-22874 -12052 c21 -46 31
-82 30 -109 -2 -35 26 -96 180 -405 827 -1657 1775 -3133 2913 -4534 472 -581
744 -897 1183 -1372 118 -128 227 -252 243 -276 15 -24 109 -127 209 -229
l181 -185 16 -83 c27 -147 103 -357 317 -885 674 -1664 1206 -2758 1840 -3784
241 -390 568 -933 892 -1481 526 -889 652 -1088 1015 -1600 84 -118 221 -312
303 -430 83 -118 163 -230 178 -249 l28 -34 -82 -88 c-45 -48 -131 -148 -192
-223 -60 -74 -112 -135 -115 -135 -3 -1 -105 79 -225 176 -1777 1429 -3330
3066 -4602 4848 -986 1383 -1791 2791 -2475 4330 -604 1357 -1132 2959 -1462
4435 -159 709 -313 1574 -386 2160 -11 91 -22 177 -25 193 -7 43 2 32 36 -40z
m47959 -666 c0 -32 -59 -388 -114 -687 -475 -2580 -1321 -4961 -2584 -7265
-821 -1499 -1818 -2931 -2937 -4220 -1107 -1275 -2392 -2484 -3660 -3444 -163
-122 -202 -148 -219 -141 -12 4 -97 24 -191 45 -142 31 -427 99 -565 135 l-35
10 0 82 c0 73 -3 89 -28 131 -43 73 -94 101 -187 105 l-77 4 37 143 c21 79 64
210 95 292 648 1682 1161 3733 1409 5633 29 221 38 267 53 275 9 6 58 48 108
95 50 47 123 116 164 153 63 58 72 71 68 94 -4 22 14 49 115 172 132 161 378
482 898 1171 322 427 1202 1568 1870 2425 477 612 675 871 1205 1575 276 366
622 823 770 1015 413 539 801 1060 1036 1391 411 578 514 727 533 770 23 52
-17 49 374 27 224 -13 472 -17 1007 -17 695 -1 711 -1 740 19 30 20 63 32 98
34 12 1 17 -6 17 -22z m-16660 -4674 c197 -73 913 -397 1985 -898 487 -227
793 -395 1519 -833 565 -340 800 -487 1036 -646 430 -290 674 -477 1140 -876
535 -458 906 -735 1157 -863 l83 -42 0 -55 c0 -30 -9 -158 -20 -285 -11 -126
-38 -441 -60 -699 -61 -722 -80 -847 -231 -1536 -55 -250 -145 -678 -199 -951
-107 -539 -170 -813 -280 -1226 -135 -507 -429 -1503 -543 -1843 l-62 -185
-190 -128 c-1147 -773 -2392 -1471 -3620 -2029 -1639 -745 -3489 -1339 -5321
-1707 -215 -43 -313 -68 -349 -86 -40 -21 -117 -37 -397 -84 -335 -55 -349
-58 -378 -86 -17 -16 -35 -46 -40 -66 l-10 -37 -223 65 c-2037 591 -3894 1398
-5697 2476 -200 120 -345 210 -672 416 -52 32 -58 39 -58 70 0 18 -9 50 -19
70 -11 20 -23 57 -26 84 -8 59 -72 158 -133 204 -59 45 -156 72 -287 81 l-110
7 3 40 c12 160 70 483 172 960 44 204 120 591 169 860 236 1283 352 1738 719
2825 359 1064 426 1306 523 1885 17 105 33 191 34 193 2 2 22 -9 45 -24 82
-55 206 -40 269 31 56 64 66 152 26 231 -31 61 -100 115 -310 245 -85 52 -164
105 -175 117 -11 12 -33 25 -48 29 -29 7 -225 123 -218 130 2 2 75 15 162 29
827 129 1833 347 2699 584 2040 560 4020 1398 5900 2498 516 302 1099 673
1565 996 l125 86 8 -57 c14 -101 25 -132 57 -148 37 -19 63 -19 100 0 46 24
53 47 45 142 l-7 85 24 -7 c12 -4 66 -23 118 -42z m7290 -4271 c0 -5 -7 -28
-14 -53 -8 -24 -36 -111 -61 -192 -26 -82 -48 -147 -50 -145 -2 2 3 69 10 148
8 80 15 169 15 198 l0 52 50 0 c28 0 50 -4 50 -8z m-28513 -6183 c115 -76 288
-166 468 -244 61 -27 127 -58 147 -71 20 -13 126 -71 235 -130 109 -58 208
-112 221 -120 63 -41 556 -267 762 -351 384 -156 702 -263 1090 -367 52 -14
300 -73 550 -131 250 -58 660 -157 910 -221 250 -63 516 -128 590 -145 298
-65 1032 -176 1390 -209 257 -23 419 -30 945 -40 303 -6 757 -19 1009 -30 447
-19 461 -19 501 -1 42 19 76 56 89 99 6 18 14 22 52 22 31 0 46 -5 51 -15 14
-38 108 -58 156 -34 12 6 31 22 43 35 17 20 34 26 95 33 l74 8 192 -123 c2233
-1437 4661 -2510 7156 -3160 148 -39 182 -50 160 -56 -67 -16 -846 -90 -1253
-118 -1776 -122 -3620 -47 -5328 215 -2287 353 -4521 1026 -6536 1970 -1360
637 -2589 1348 -3772 2181 -282 199 -674 487 -674 496 0 17 213 262 329 379
99 99 218 199 238 199 1 0 51 -32 110 -71z m21079 -3893 l0 -54 -135 -4 c-75
-3 -145 -1 -156 3 l-20 8 20 6 c11 4 79 26 150 50 72 24 132 43 135 44 3 1 5
-23 6 -53z m-4149 -932 c-3 -3 -12 -4 -19 -1 -8 3 -5 6 6 6 11 1 17 -2 13 -5z"/>
<path d="M37810 15289 c-9007 -100 -16581 -803 -19025 -1766 -177 -70 -394
-177 -504 -250 -115 -76 -229 -191 -267 -268 -41 -85 -41 -185 0 -269 78 -160
306 -323 662 -475 2142 -911 8890 -1608 17269 -1781 1214 -25 1767 -31 3390
-37 3137 -10 5788 38 8590 157 7189 306 12413 1004 13780 1840 365 223 438
469 208 700 -1041 1040 -8084 1895 -17393 2110 -2013 46 -4668 62 -6710 39z"/>
</g>
</svg>
